<svg width="243" height="234" viewBox="0 0 243 234" fill="none" xmlns="http://www.w3.org/2000/svg">
<rect width="243" height="234" rx="117" fill="#0F013C"/>
<path d="M73.611 131.383C73.611 129.439 73.908 126.928 74.502 123.85C75.15 120.718 75.96 117.37 76.932 113.806C77.958 110.188 79.119 106.516 80.415 102.79C81.711 99.01 83.034 95.473 84.384 92.179C85.734 88.885 87.057 85.996 88.353 83.512C89.649 81.028 90.81 79.246 91.836 78.166C92.376 78.22 93.078 78.436 93.942 78.814C94.86 79.138 95.778 79.543 96.696 80.029C97.614 80.515 98.451 81.055 99.207 81.649C99.963 82.189 100.449 82.702 100.665 83.188C99.099 84.592 97.533 86.725 95.967 89.587C94.455 92.395 92.97 95.608 91.512 99.226C90.108 102.844 88.785 106.678 87.543 110.728C86.301 114.724 85.221 118.612 84.303 122.392C83.385 126.172 82.656 129.682 82.116 132.922C81.63 136.162 81.387 138.781 81.387 140.779C81.387 141.697 81.468 142.264 81.63 142.48C80.442 142.426 79.578 142.21 79.038 141.832C78.498 141.508 78.066 141.13 77.742 140.698C77.472 140.32 77.202 139.915 76.932 139.483C76.716 139.105 76.365 138.808 75.879 138.592C75.501 138.43 75.177 138.052 74.907 137.458C74.637 136.864 74.394 136.216 74.178 135.514C74.016 134.758 73.881 134.002 73.773 133.246C73.665 132.49 73.611 131.869 73.611 131.383Z" fill="white"/>
<path d="M138.843 82.7872C140.805 85.0164 142.111 87.6439 142.76 90.6695C143.45 93.6595 143.521 96.7631 142.971 99.9804C142.427 103.121 141.271 106.262 139.502 109.401C137.774 112.505 135.492 115.306 132.655 117.804C131.641 118.696 130.724 119.288 129.902 119.58C129.084 119.796 127.972 119.84 126.565 119.712C128.427 125.914 130.351 131.45 132.337 136.321C134.328 141.116 136.493 145.577 138.832 149.705C136.97 150.696 135.143 151.154 133.349 151.078C131.592 151.043 129.701 150.693 127.677 150.028C127.404 148.901 126.999 147.46 126.46 145.704C125.921 143.948 125.255 141.801 124.46 139.263C123.629 136.685 122.616 133.656 121.422 130.174C120.233 126.617 118.851 122.473 117.278 117.744C116.534 115.592 115.889 113.714 115.34 112.111C114.792 110.507 114.254 109.038 113.727 107.704C113.164 106.329 112.578 105.01 111.97 103.747C111.402 102.448 110.745 101.048 109.999 99.5466C108.629 101.832 107.491 104.093 106.583 106.331C105.716 108.533 105.148 110.544 104.879 112.363C104.3 112.441 103.594 112.416 102.76 112.286C101.967 112.121 101.159 111.897 100.335 111.615C99.4758 111.293 98.6569 110.934 97.8785 110.541C97.1001 110.147 96.4765 109.724 96.0078 109.274C96.4696 107.428 97.2686 105.394 98.4049 103.171C99.5411 100.947 100.888 98.7181 102.446 96.4833C103.968 94.208 105.658 92.0008 107.516 89.8616C109.415 87.6867 111.336 85.7429 113.282 84.0302C115.592 81.9963 117.947 80.4627 120.347 79.4293C122.711 78.3554 125.005 77.7744 127.23 77.6865C129.455 77.5985 131.554 77.9807 133.528 78.8333C135.501 79.6858 137.273 81.0038 138.843 82.7872ZM121.598 85.0185C120.058 86.3744 118.584 87.8876 117.177 89.5581L118.87 90.0102C118.929 90.8939 119.118 92.1303 119.438 93.7193C119.757 95.3084 120.213 97.1739 120.803 99.3158C121.358 101.417 121.993 103.772 122.707 106.381C123.461 108.955 124.244 111.683 125.055 114.566C128.217 111.782 130.845 108.965 132.939 106.114C134.998 103.223 136.494 100.467 137.425 97.8483C138.362 95.1531 138.731 92.6705 138.531 90.4004C138.371 88.0946 137.596 86.1513 136.204 84.5706C134.349 82.4629 132.159 81.4053 129.634 81.3977C127.074 81.3495 124.395 82.5565 121.598 85.0185Z" fill="white"/>
<path d="M178.356 103.333C177.88 105.218 176.977 107.579 175.646 110.418C174.25 113.295 172.645 116.343 170.829 119.56C168.947 122.816 166.922 126.091 164.752 129.386C162.569 132.733 160.419 135.838 158.303 138.701C156.187 141.563 154.196 144.04 152.331 146.131C150.466 148.221 148.903 149.664 147.644 150.46C147.134 150.275 146.506 149.894 145.761 149.315C144.951 148.776 144.16 148.159 143.389 147.463C142.618 146.766 141.939 146.038 141.352 145.277C140.751 144.568 140.406 143.951 140.315 143.427C142.178 142.45 144.219 140.766 146.438 138.375C148.592 136.023 150.82 133.272 153.12 130.122C155.368 126.958 157.59 123.565 159.787 119.943C161.97 116.374 163.97 112.869 165.787 109.429C167.603 105.989 169.17 102.765 170.488 99.7563C171.753 96.7343 172.631 94.2547 173.121 92.3177C173.346 91.4277 173.406 90.8581 173.302 90.609C174.44 90.9525 175.225 91.3737 175.656 91.8725C176.1 92.319 176.426 92.7913 176.635 93.2896C176.804 93.7222 176.966 94.181 177.122 94.666C177.239 95.0855 177.506 95.4594 177.925 95.7879C178.251 96.0377 178.473 96.4835 178.589 97.1256C178.705 97.7677 178.782 98.4554 178.819 99.189C178.791 99.9616 178.737 100.728 178.656 101.487C178.575 102.246 178.476 102.862 178.356 103.333Z" fill="white"/>
</svg>
