<svg width="243" height="234" viewBox="0 0 243 234" fill="none" xmlns="http://www.w3.org/2000/svg">
<rect width="243" height="234" rx="117" fill="#0F013C"/>
<path d="M174.457 91.1777C174.457 96.4037 173.126 101.392 170.466 106.143C167.9 110.894 164.385 115.075 159.919 118.685C155.548 122.201 150.369 125.004 144.383 127.095C138.492 129.185 132.221 130.23 125.57 130.23C123.194 130.23 121.294 129.945 119.868 129.375C118.538 128.71 117.018 127.475 115.308 125.669C110.557 136.026 106.661 145.576 103.62 154.317C100.675 162.964 98.3468 171.373 96.6365 179.545C93.0258 178.69 90.0802 177.169 87.7998 174.984C85.5193 172.893 83.4289 170.233 81.5286 167.002C82.4788 165.197 83.619 162.822 84.9492 159.876C86.2795 156.93 87.8948 153.32 89.7952 149.044C91.6955 144.673 93.881 139.494 96.3514 133.508C98.9169 127.427 101.91 120.348 105.331 112.272C106.851 108.566 108.181 105.335 109.321 102.58C110.462 99.8243 111.459 97.2588 112.315 94.8834C113.17 92.4129 113.93 89.9899 114.595 87.6145C115.355 85.239 116.115 82.626 116.875 79.7755C112.41 81.2007 108.276 82.8636 104.476 84.7639C100.77 86.6643 97.6817 88.6597 95.2112 90.7501C94.3561 90.18 93.4534 89.3248 92.5032 88.1846C91.648 87.0444 90.8404 85.8091 90.0802 84.4789C89.3201 83.0536 88.655 81.6283 88.0848 80.203C87.5147 78.7778 87.1822 77.495 87.0872 76.3548C89.8427 74.4544 93.2633 72.6966 97.3491 71.0813C101.435 69.466 105.806 68.0882 110.462 66.948C115.118 65.7127 119.916 64.7626 124.857 64.0974C129.893 63.4323 134.691 63.0997 139.252 63.0997C144.668 63.0997 149.562 63.8124 153.933 65.2377C158.303 66.5679 162.009 68.4683 165.05 70.9388C168.09 73.4092 170.418 76.3548 172.034 79.7755C173.649 83.1961 174.457 86.9969 174.457 91.1777ZM149.087 74.0744C145.476 74.0744 141.77 74.3594 137.969 74.9295L139.68 77.495C138.73 78.7303 137.542 80.5831 136.117 83.0536C134.691 85.5241 133.124 88.5172 131.413 92.0328C129.703 95.4535 127.803 99.3017 125.712 103.578C123.717 107.853 121.579 112.367 119.298 117.118C126.71 117.118 133.456 116.453 139.537 115.122C145.618 113.697 150.797 111.797 155.073 109.421C159.444 106.951 162.817 104.1 165.192 100.87C167.663 97.6389 168.898 94.1707 168.898 90.465C168.898 85.5241 167.235 81.5808 163.909 78.6352C160.584 75.5947 155.643 74.0744 149.087 74.0744Z" fill="white"/>
</svg>
